#  3D Slicer output. SPACE=LPS

mtllib C5 vertebra.mtl

v -9.108138084411621 -6.860494613647461 27.54150390625
v -8.393073081970215 -7.014155387878418 27.384872436523438
v -7.629680633544922 -7.07324743270874 27.240447998046875
v -6.82302713394165 -7.0772528648376465 27.166519165039062
v -5.977153778076172 -7.050073146820068 27.16522216796875
v -5.094897747039795 -6.995761394500732 27.228164672851562
v -4.190230369567871 -6.890523433685303 27.292709350585938
v -3.316521644592285 -6.7830681800842285 27.3345947265625
v -2.510678768157959 -6.745791435241699 27.404098510742188
v -1.7912507057189941 -6.772267818450928 27.522201538085938
v -1.2927889823913574 -6.8363189697265625 27.666702270507812
v -9.229397773742676 -6.161212921142578 27.350997924804688
v -8.553398132324219 -6.270194053649902 27.195053100585938
v -7.80867338180542 -6.321227550506592 27.06695556640625
v -7.016360759735107 -6.326937675476074 26.976089477539062
v -6.188523769378662 -6.30345344543457 26.931610107421875
v -5.3382039070129395 -6.26978874206543 26.924362182617188
v -4.484200477600098 -6.238961219787598 26.932830810546875
v -3.644073009490967 -6.215393543243408 26.948318481445312
v -2.824735641479492 -6.216859817504883 26.993637084960938
v -2.0206332206726074 -6.263089179992676 27.106399536132812
v -1.2137055397033691 -6.378471851348877 27.33306884765625
v -9.278178215026855 -5.460762977600098 27.32666015625
v -8.648002624511719 -5.524253845214844 27.169647216796875
v -7.92917013168335 -5.543637275695801 27.050552368164062
v -7.158100605010986 -5.538582801818848 26.960296630859375
v -6.354022026062012 -5.509686470031738 26.89849853515625
v -5.519008636474609 -5.454707145690918 26.8621826171875
v -4.678213596343994 -5.433225631713867 26.82373046875
v -3.861677646636963 -5.463016033172607 26.777572631835938
v -3.0582070350646973 -5.502068996429443 26.759033203125
v -2.242708206176758 -5.556619167327881 26.802139282226562
v -1.389765739440918 -5.631518363952637 26.940231323242188
v -0.4525303840637207 -5.697941780090332 27.196044921875
v 0.4772663116455078 -5.430698394775391 27.370376586914062
v 1.1404991149902344 -5.248510837554932 27.543106079101562
v 1.5048503875732422 -5.163609981536865 27.724456787109375
v -9.300827980041504 -4.9158453941345215 27.41546630859375
v -8.7611083984375 -4.8660993576049805 27.300949096679688
v -8.057069778442383 -4.8212409019470215 27.200698852539062
v -7.295835018157959 -4.788470268249512 27.119064331054688
v -6.513607501983643 -4.754853248596191 27.052230834960938
v -5.71664571762085 -4.691112041473389 27.001953125
v -4.834794998168945 -4.522275924682617 26.98272705078125
v -4.009771347045898 -4.628169536590576 26.86614990234375
v -3.2314062118530273 -4.701781272888184 26.768035888671875
v -2.437138557434082 -4.761171340942383 26.72149658203125
v -1.598811149597168 -4.824697971343994 26.752243041992188
v -0.7099390029907227 -4.880857467651367 26.878662109375
v 0.18744468688964844 -4.86520528793335 27.073516845703125
v 0.9807348251342773 -4.797673225402832 27.316741943359375
v 1.5562057495117188 -4.775679111480713 27.622833251953125
v -4.110157489776611 -3.811311721801758 27.199859619140625
v -3.3761143684387207 -3.9301037788391113 27.020034790039062
v -2.6177525520324707 -3.97413969039917 26.895675659179688
v -1.802504062652588 -4.011845588684082 26.825408935546875
v -0.9332180023193359 -4.061985015869141 26.835250854492188
v -0.04067420959472656 -4.1080474853515625 26.94610595703125
v 0.8091926574707031 -4.136788845062256 27.1600341796875
v 1.5400409698486328 -4.155898094177246 27.48809814453125
v -4.022526741027832 -3.299856185913086 27.585678100585938
v -3.5201549530029297 -3.340280055999756 27.435989379882812
v -2.8249144554138184 -3.3135294914245605 27.2845458984375
v -2.029287815093994 -3.269362449645996 27.153244018554688
v -1.1612296104431152 -3.2738089561462402 27.04742431640625
v -0.26187896728515625 -3.310680389404297 27.043991088867188
v 0.6249666213989258 -3.370976448059082 27.160110473632812
v 1.420426368713379 -3.4433484077453613 27.399139404296875
v -7.94607400894165 -8.42738151550293 28.392715454101562
v -7.340693473815918 -8.485627174377441 28.327255249023438
v -6.629025936126709 -8.500313758850098 28.313064575195312
v -5.932414531707764 -8.487260818481445 28.3575439453125
v -5.367517471313477 -8.448624610900879 28.4698486328125
v -5.040609836578369 -8.374786376953125 28.622360229492188
v -9.558284759521484 -7.148873805999756 28.00018310546875
v -8.838915824890137 -7.5386881828308105 27.928009033203125
v -8.113348007202148 -7.680928707122803 27.663803100585938
v -7.365310192108154 -7.725131511688232 27.53509521484375
v -6.55980110168457 -7.718861103057861 27.5067138671875
v -5.7098388671875 -7.677054405212402 27.579498291015625
v -4.753530025482178 -7.579779624938965 27.797317504882812
v -3.728330135345459 -7.242691516876221 27.817916870117188
v -2.854645252227783 -7.073473930358887 27.838134765625
v -2.097022533416748 -7.017970085144043 27.88482666015625
v -1.4733672142028809 -7.007992267608643 27.938690185546875
v -8.341466903686523 -8.102703094482422 28.145217895507812
v -7.749021053314209 -8.190250396728516 27.97607421875
v -7.025957107543945 -8.214664459228516 27.910537719726562
v -6.250357627868652 -8.199858665466309 27.936172485351562
v -5.494272708892822 -8.155202865600586 28.068923950195312
v -4.900109767913818 -8.099579811096191 28.351974487304688
v -9.737133979797363 -6.639087200164795 27.688674926757812
v -1.0427236557006836 -6.956624984741211 27.942886352539062
v -10.469305038452148 -6.669557094573975 28.290176391601562
v -10.07133674621582 -6.865072250366211 28.047409057617188
v -0.5842328071594238 -6.849527359008789 28.104324340820312
v -0.26301145553588867 -6.7658305168151855 28.366928100585938
v -9.821044921875 -5.978000164031982 27.555618286132812
v -0.8590817451477051 -6.722021102905273 27.70843505859375
v -0.5745887756347656 -6.345069408416748 27.509231567382812
v 0.06930828094482422 -6.080019474029541 27.672348022460938
v 0.825190544128418 -5.664479732513428 27.727890014648438
v 1.2833595275878906 -5.423998832702637 27.757644653320312
v -10.802149772644043 -6.034731864929199 28.234481811523438
v -10.273540496826172 -6.389093399047852 27.906341552734375
v -0.3995656967163086 -6.565225124359131 27.807693481445312
v -0.06961822509765625 -6.509792804718018 28.1085205078125
v -9.800756454467773 -5.269873142242432 27.5537109375
v 1.5262365341186523 -5.277776718139648 27.91595458984375
v -11.846208572387695 -4.856204986572266 28.689346313476562
v -11.33260726928711 -5.294907093048096 28.452377319335938
v -10.826706886291504 -5.356240272521973 28.102874755859375
v -10.351837158203125 -5.6885600090026855 27.833175659179688
v -9.620332717895508 -4.6816229820251465 27.628555297851562
v 1.7834186553955078 -4.8888444900512695 27.948837280273438
v -9.034919738769531 -4.392552375793457 27.566986083984375
v -8.281946182250977 -4.234075546264648 27.493820190429688
v -7.495284080505371 -4.150426387786865 27.428207397460938
v -6.710326671600342 -4.105377197265625 27.363967895507812
v -5.945301055908203 -4.065525531768799 27.296524047851562
v -5.235075950622559 -3.9907336235046387 27.239151000976562
v -4.688096046447754 -3.816545009613037 27.256546020507812
v -12.092411041259766 -4.35633659362793 28.690338134765625
v -11.683786392211914 -4.572534561157227 28.506393432617188
v -11.07337474822998 -4.728913307189941 28.244476318359375
v -10.302484512329102 -4.850828647613525 27.895660400390625
v -4.4811248779296875 -3.430628776550293 27.537994384765625
v 2.110576629638672 -4.194128513336182 27.965850830078125
v -12.257742881774902 -3.9099574089050293 28.730697631835938
v -11.948633193969727 -4.025793075561523 28.60198974609375
v -11.388158798217773 -4.117918014526367 28.433380126953125
v -10.619604110717773 -4.15877103805542 28.218765258789062
v -9.654808044433594 -4.110062122344971 27.960357666015625
v -8.686184883117676 -3.8284659385681152 27.890243530273438
v -7.822203636169434 -3.687894344329834 27.84210205078125
v -7.0006608963012695 -3.6196231842041016 27.7899169921875
v -6.214630603790283 -3.5872340202331543 27.717666625976562
v -5.480551719665527 -3.563404083251953 27.616348266601562
v -4.936325550079346 -3.5570859909057617 27.495651245117188
v 2.69620418548584 -3.413724899291992 28.268356323242188
v 3.041243553161621 -3.2403111457824707 28.575515747070312
v -4.352200031280518 -3.1728267669677734 27.880325317382812
v 2.100038528442383 -3.4566283226013184 27.779388427734375
v -3.7970662117004395 -3.033876419067383 27.982254028320312
v -3.106570243835449 -2.9583096504211426 27.73773193359375
v -2.344679832458496 -2.6723384857177734 27.729110717773438
v -1.4186620712280273 -2.5899887084960938 27.4713134765625
v -0.5080938339233398 -2.5634407997131348 27.355499267578125
v 0.4173755645751953 -2.588009834289551 27.356414794921875
v 1.285243034362793 -2.6749253273010254 27.482376098632812
v 1.9243955612182617 -2.836942672729492 27.685775756835938
v -12.338757514953613 -3.6286354064941406 28.762893676757812
v -12.152969360351562 -3.656768798828125 28.696746826171875
v -11.707056045532227 -3.695499897003174 28.611526489257812
v -11.026466369628906 -3.713846206665039 28.510360717773438
v -10.168373107910156 -3.680598735809326 28.400802612304688
v -9.226846694946289 -3.568577766418457 28.327178955078125
v -8.302974700927734 -3.4357666969299316 28.297271728515625
v -7.433938980102539 -3.354036808013916 28.266677856445312
v -6.610357761383057 -3.31496000289917 28.210601806640625
v -5.814075469970703 -3.295886516571045 28.111495971679688
v -4.992020130157471 -3.275465965270996 27.935028076171875
v 2.538943290710449 -2.621126174926758 28.096160888671875
v 2.976346015930176 -2.7790069580078125 28.496246337890625
v -2.273678779602051 -2.1630287170410156 28.288345336914062
v -1.6474723815917969 -2.0748376846313477 27.9827880859375
v -0.7951140403747559 -1.9605755805969238 27.814483642578125
v 0.16396045684814453 -1.8786907196044922 27.725143432617188
v 1.1070966720581055 -1.8915772438049316 27.73101806640625
v 1.9998788833618164 -2.016758918762207 27.90252685546875
v 2.6151180267333984 -1.8296599388122559 28.22509765625
v 2.9157638549804688 -2.064990997314453 28.472137451171875
v -2.1596670150756836 -1.887369155883789 28.568191528320312
v -1.8148064613342285 -1.7813444137573242 28.404769897460938
v -1.1613845825195312 -1.63421630859375 28.281326293945312
v -0.15336275100708008 -1.3421416282653809 28.243789672851562
v 0.8761405944824219 -1.2112617492675781 28.086929321289062
v 1.7230510711669922 -1.2203693389892578 28.09661865234375
v 2.397489547729492 -1.2551546096801758 28.256301879882812
v 2.815699577331543 -1.3600826263427734 28.494033813476562
v 0.7939577102661133 -0.6791591644287109 28.510894775390625
v 1.5213727951049805 -0.6316781044006348 28.369827270507812
v 2.1654367446899414 -0.6694436073303223 28.402099609375
v 2.633833885192871 -0.7729291915893555 28.539047241210938
v 1.1183738708496094 -0.2628326416015625 28.722610473632812
v 1.4376640319824219 -0.2361297607421875 28.620147705078125
v 1.9484758377075195 -0.26050806045532227 28.594512939453125
v 2.4169445037841797 -0.35545825958251953 28.643798828125
v -8.006441116333008 -8.415567398071289 28.691940307617188
v -7.526075839996338 -8.499134063720703 28.693389892578125
v -6.864213943481445 -8.542871475219727 28.680877685546875
v -6.181931495666504 -8.562564849853516 28.670806884765625
v -5.6163787841796875 -8.566200256347656 28.6767578125
v -5.262148380279541 -8.526802062988281 28.700027465820312
v -8.312856674194336 -8.298074722290039 28.510894775390625
v -5.05295991897583 -8.369040489196777 28.798828125
v -8.241844177246094 -8.119571685791016 28.81591796875
v -7.669699192047119 -8.24275016784668 28.964920043945312
v -7.003390789031982 -8.31338119506836 29.000701904296875
v -6.3007354736328125 -8.359026908874512 28.979644775390625
v -5.678343772888184 -8.40548324584961 28.918075561523438
v -5.315065383911133 -8.464527130126953 28.84246826171875
v -8.661258697509766 -7.93299674987793 28.475418090820312
v -4.696750640869141 -8.035457611083984 28.722991943359375
v -10.467886924743652 -6.700778007507324 28.620452880859375
v -9.950613975524902 -7.007861137390137 28.4783935546875
v -9.21485424041748 -7.4410200119018555 28.474044799804688
v -4.0738701820373535 -7.563292980194092 28.42926025390625
v -3.087186813354492 -7.198119163513184 28.362503051757812
v -2.2674918174743652 -7.063460350036621 28.346328735351562
v -1.5657544136047363 -7.024717330932617 28.338470458984375
v -0.9625554084777832 -6.996369361877441 28.310394287109375
v -0.526583194732666 -6.92209005355835 28.422012329101562
v -8.57638168334961 -7.525062561035156 28.96392822265625
v -7.819032669067383 -7.732188701629639 29.167404174804688
v -7.092952728271484 -7.829737663269043 29.253005981445312
v -6.349468231201172 -7.888936996459961 29.25384521484375
v -5.637776851654053 -7.946324348449707 29.179611206054688
v -5.042886734008789 -8.049785614013672 28.999099731445312
v -10.778820037841797 -6.416535377502441 28.530044555664062
v -0.2944469451904297 -6.756925582885742 28.57513427734375
v -10.664070129394531 -6.277227401733398 28.844985961914062
v -10.069513320922852 -6.594276428222656 28.923873901367188
v -9.264779090881348 -6.920969486236572 28.998336791992188
v -8.503556251525879 -6.875121593475342 29.284591674804688
v -7.886099815368652 -7.0482611656188965 29.361495971679688
v -7.138311862945557 -7.147347927093506 29.441375732421875
v -6.364297866821289 -7.206523418426514 29.463577270507812
v -5.595529079437256 -7.254481315612793 29.420928955078125
v -4.8624396324157715 -7.3035359382629395 29.297714233398438
v -4.147171974182129 -7.322502136230469 29.0374755859375
v -3.2010674476623535 -7.00613260269165 28.893508911132812
v -2.3458361625671387 -6.8477630615234375 28.827056884765625
v -1.5891313552856445 -6.801044940948486 28.770523071289062
v -0.9612798690795898 -6.816279888153076 28.682861328125
v -0.5888700485229492 -6.861472129821777 28.598098754882812
v -11.080301284790039 -5.891704559326172 28.657760620117188
v 0.07448196411132812 -6.430506706237793 28.489837646484375
v -11.859786987304688 -4.842984676361084 28.87176513671875
v -11.498808860778809 -5.274820327758789 28.805770874023438
v 0.5838871002197266 -5.979597568511963 28.168182373046875
v 1.206803321838379 -5.546939373016357 28.02093505859375
v -10.920548439025879 -5.547523498535156 29.043045043945312
v -10.19650650024414 -5.931282043457031 29.17755126953125
v -9.442222595214844 -6.156027317047119 29.279022216796875
v -8.65129280090332 -6.253063678741455 29.40032958984375
v -7.888829708099365 -6.293904781341553 29.507904052734375
v -7.132220268249512 -6.348776817321777 29.562759399414062
v -6.349074840545654 -6.389486789703369 29.586181640625
v -5.560553073883057 -6.423640251159668 29.572372436523438
v -4.78287935256958 -6.457364559173584 29.517440795898438
v -4.012405872344971 -6.476128101348877 29.417190551757812
v -3.2012343406677246 -6.4232587814331055 29.313430786132812
v -2.3610472679138184 -6.3384175300598145 29.243087768554688
v -1.560056209564209 -6.310677528381348 29.172286987304688
v -0.8402705192565918 -6.341648101806641 29.0447998046875
v -0.26671886444091797 -6.442248821258545 28.80096435546875
v -12.088834762573242 -4.563188552856445 28.809432983398438
v 1.6012191772460938 -5.148828029632568 28.2257080078125
v -11.967622756958008 -4.455387592315674 28.94012451171875
v -11.451017379760742 -4.846823215484619 29.049301147460938
v -10.81840991973877 -4.9352288246154785 29.231491088867188
v -10.23501205444336 -5.196821689605713 29.319686889648438
v -9.4832181930542 -5.380904674530029 29.417724609375
v -8.684921264648438 -5.472457408905029 29.498748779296875
v -7.882583141326904 -5.502951145172119 29.561386108398438
v -7.092094421386719 -5.514419078826904 29.596786499023438
v -6.3051581382751465 -5.525219440460205 29.607391357421875
v -5.517458915710449 -5.535686016082764 29.603118896484375
v -4.734039306640625 -5.5496931076049805 29.589309692382812
v -3.954923152923584 -5.568182468414307 29.568328857421875
v -3.164792060852051 -5.579018592834473 29.544143676757812
v -2.3505568504333496 -5.578255653381348 29.52056884765625
v -1.528012752532959 -5.589604377746582 29.48028564453125
v -0.7340550422668457 -5.631577968597412 29.377822875976562
v -0.013136863708496094 -5.696427822113037 29.1534423828125
v 0.6011962890625 -5.741214752197266 28.735504150390625
v 1.1538028717041016 -5.50607442855835 28.38836669921875
v -12.218451499938965 -4.171967506408691 28.826065063476562
v 2.0650625228881836 -4.539525508880615 28.357696533203125
v 2.585744857788086 -3.922760486602783 28.452072143554688
v 2.9367685317993164 -3.5519957542419434 28.55926513671875
v -12.069856643676758 -3.980743885040283 28.929290771484375
v -11.60726547241211 -4.212653636932373 29.055557250976562
v -10.967529296875 -4.3926239013671875 29.198226928710938
v -10.247540473937988 -4.521214962005615 29.327545166015625
v -9.478103637695312 -4.635453224182129 29.421615600585938
v -8.665048599243164 -4.69968318939209 29.487228393554688
v -7.845973968505859 -4.7193169593811035 29.521865844726562
v -7.03885555267334 -4.715359210968018 29.528884887695312
v -6.246507167816162 -4.703414440155029 29.51812744140625
v -5.464518070220947 -4.686260223388672 29.505233764648438
v -4.687106609344482 -4.662978649139404 29.505538940429688
v -3.912997245788574 -4.6465277671813965 29.53033447265625
v -3.137481212615967 -4.652833938598633 29.576034545898438
v -2.3418307304382324 -4.677224159240723 29.621429443359375
v -1.5164971351623535 -4.7142863273620605 29.64111328125
v -0.6806015968322754 -4.770803451538086 29.601593017578125
v 0.1275777816772461 -4.844009876251221 29.457244873046875
v 0.870060920715332 -4.903078079223633 29.165496826171875
v 1.5399456024169922 -4.878818988800049 28.720169067382812
v -12.305868148803711 -3.775942325592041 28.825607299804688
v 3.048086166381836 -3.383004665374756 28.723068237304688
v -12.140512466430664 -3.6217689514160156 28.873977661132812
v -11.717844009399414 -3.750491142272949 28.968734741210938
v -11.087560653686523 -3.8739800453186035 29.081344604492188
v -10.325312614440918 -3.959774971008301 29.1937255859375
v -9.50204086303711 -4.01153564453125 29.285430908203125
v -8.659326553344727 -4.037332534790039 29.34417724609375
v -7.821559906005859 -4.040777683258057 29.3658447265625
v -7.001817226409912 -4.030096530914307 29.35211181640625
v -6.2009453773498535 -4.009389877319336 29.315338134765625
v -5.419063568115234 -3.973984718322754 29.281539916992188
v -4.648101329803467 -3.9108753204345703 29.272613525390625
v -3.866112232208252 -3.81089448928833 29.308547973632812
v -3.0951738357543945 -3.746485710144043 29.413604736328125
v -2.330172061920166 -3.7521719932556152 29.54254150390625
v -1.5216708183288574 -3.7813901901245117 29.634017944335938
v -0.6729245185852051 -3.832566738128662 29.669723510742188
v 0.17952919006347656 -3.912508487701416 29.61883544921875
v 0.9893894195556641 -4.006588459014893 29.448776245117188
v 1.7199993133544922 -4.066205024719238 29.155960083007812
v 2.367734909057617 -3.9902329444885254 28.802719116210938
v 2.8502702713012695 -3.6686301231384277 28.708953857421875
v -12.320745468139648 -3.543710708618164 28.80889892578125
v 3.067612648010254 -2.9825806617736816 28.76678466796875
v -12.265706062316895 -3.4960150718688965 28.762741088867188
v -11.987566947937012 -3.487825393676758 28.742218017578125
v -11.449325561523438 -3.5065293312072754 28.725509643554688
v -10.70193099975586 -3.509843349456787 28.713607788085938
v -9.827852249145508 -3.473520278930664 28.710403442382812
v -8.913528442382812 -3.4062981605529785 28.717422485351562
v -8.019458770751953 -3.3421754837036133 28.719024658203125
v -7.166337966918945 -3.3016204833984375 28.694076538085938
v -6.346309185028076 -3.2790422439575195 28.63006591796875
v -5.528843402862549 -3.251504898071289 28.524169921875
v -4.642140865325928 -3.16159725189209 28.39752197265625
v -3.9925456047058105 -3.041231632232666 28.527984619140625
v -3.1045913696289062 -2.718186378479004 28.3636474609375
v -12.175893783569336 -3.4670233726501465 28.810348510742188
v -11.836040496826172 -3.501617908477783 28.8470458984375
v -11.238312721252441 -3.558206558227539 28.90350341796875
v -10.468090057373047 -3.594231605529785 28.968734741210938
v -9.609115600585938 -3.597545623779297 29.030685424804688
v -8.728515625 -3.5799145698547363 29.075851440429688
v -7.864594459533691 -3.55757474899292 29.09088134765625
v -7.029485702514648 -3.538215160369873 29.067840576171875
v -6.216740608215332 -3.517591953277588 29.00970458984375
v -5.412006378173828 -3.477621078491211 28.938217163085938
v -4.64327335357666 -3.399324417114258 28.9154052734375
v -3.8665413856506348 -3.238844871520996 28.92303466796875
v -2.98769474029541 -2.9173851013183594 29.0185546875
v -2.28348970413208 -2.896237373352051 29.301528930664062
v -1.5230178833007812 -2.8942108154296875 29.470291137695312
v -0.6847858428955078 -2.9024839401245117 29.575271606445312
v 0.1819133758544922 -2.9578328132629395 29.612655639648438
v 1.0205268859863281 -3.067600727081299 29.552078247070312
v 1.779770851135254 -3.2031655311584473 29.378204345703125
v 2.4114131927490234 -3.31648588180542 29.123458862304688
v 2.859330177307129 -3.3622384071350098 28.888015747070312
v -2.48793363571167 -2.2252678871154785 28.67706298828125
v 3.030681610107422 -2.3431777954101562 28.773880004882812
v -2.139449119567871 -2.1628260612487793 28.974075317382812
v -1.5059709548950195 -2.164125442504883 29.195404052734375
v -0.6939172744750977 -2.0822525024414062 29.338607788085938
v 0.1808643341064453 -2.0499706268310547 29.44671630859375
v 1.017594337463379 -2.138221263885498 29.4879150390625
v 1.7796516418457031 -2.3038387298583984 29.416885375976562
v 2.413654327392578 -2.5142788887023926 29.241409301757812
v 2.859210968017578 -2.7425050735473633 29.005661010742188
v -2.152848243713379 -1.883232593536377 28.754119873046875
v 2.956223487854004 -1.6091227531433105 28.76220703125
v -1.945185661315918 -1.7150402069091797 28.647689819335938
v -1.55867338180542 -1.6038894653320312 28.625411987304688
v -0.8785605430603027 -1.4188408851623535 28.641357421875
v -0.015652179718017578 -1.061403751373291 28.736419677734375
v -1.8883109092712402 -1.7512798309326172 28.800888061523438
v -1.484382152557373 -1.713263988494873 28.896255493164062
v -0.7490754127502441 -1.5500187873840332 29.01092529296875
v 0.23374557495117188 -1.2354493141174316 29.123687744140625
v 1.040029525756836 -1.2830853462219238 29.29107666015625
v 1.7609834671020508 -1.4452457427978516 29.317703247070312
v 2.377653121948242 -1.6824841499328613 29.222793579101562
v 2.8203487396240234 -1.9838571548461914 29.029388427734375
v 0.7480859756469727 -0.5784988403320312 28.83941650390625
v 2.835869789123535 -0.9477853775024414 28.743896484375
v 1.189422607421875 -0.5364537239074707 29.029083251953125
v 1.7646312713623047 -0.7189631462097168 29.136428833007812
v 2.321338653564453 -0.9395122528076172 29.116973876953125
v 2.7438879013061523 -1.233673095703125 28.98651123046875
v 1.1913537979125977 -0.21808147430419922 28.85833740234375
v 2.6871204376220703 -0.5147457122802734 28.7335205078125
v 1.4024972915649414 -0.08167028427124023 28.77471923828125
v 1.7313718795776367 -0.08063316345214844 28.771591186523438
v 2.159762382507324 -0.1715540885925293 28.79425048828125
v 2.5020599365234375 -0.3163337707519531 28.816299438476562
v 1.4772891998291016 -0.12688636779785156 28.884506225585938
v 1.7958641052246094 -0.23708343505859375 28.943405151367188
v 2.2548437118530273 -0.40460824966430664 28.968048095703125
v 2.63674259185791 -0.6368875503540039 28.908233642578125
vn -0.3184584975242615 -0.4375303387641907 -0.8409229516983032
vn -0.25553762912750244 -0.3929935097694397 -0.8833214044570923
vn -0.14444047212600708 -0.35753992199897766 -0.9226604104042053
vn -0.03750531002879143 -0.3687542676925659 -0.9287700057029724
vn 0.05108584091067314 -0.4123119115829468 -0.9096093773841858
vn 0.11501261591911316 -0.498144268989563 -0.8594326376914978
vn 0.12589143216609955 -0.5999478697776794 -0.7900721430778503
vn 0.10545841604471207 -0.6798251867294312 -0.7257521748542786
vn 0.08836977183818817 -0.7216094732284546 -0.6866371631622314
vn 0.09380267560482025 -0.7367017865180969 -0.6696802377700806
vn 0.16107989847660065 -0.7547846436500549 -0.635887861251831
vn -0.2988779544830322 -0.16703689098358154 -0.9395588040351868
vn -0.21443460881710052 -0.17328320443630219 -0.9612444043159485
vn -0.15023687481880188 -0.15444821119308472 -0.976511538028717
vn -0.0817878246307373 -0.150642991065979 -0.9851992130279541
vn -0.021906398236751556 -0.17293603718280792 -0.984689474105835
vn 0.013574604876339436 -0.2237337827682495 -0.9745557904243469
vn 0.024369830265641212 -0.301326721906662 -0.9532095193862915
vn 0.03741850331425667 -0.383826345205307 -0.9226468801498413
vn 0.06960389018058777 -0.44819894433021545 -0.891219973564148
vn 0.12493683397769928 -0.4896852970123291 -0.8629016280174255
vn 0.20458289980888367 -0.5275225043296814 -0.824539840221405
vn -0.2985513508319855 0.056970320641994476 -0.9526917338371277
vn -0.19721274077892303 0.055149540305137634 -0.9788083434104919
vn -0.14054366946220398 0.06745976209640503 -0.9877736568450928
vn -0.09971318393945694 0.07462073117494583 -0.9922142028808594
vn -0.06369449943304062 0.06642775982618332 -0.995756208896637
vn -0.04116843268275261 0.04758360609412193 -0.9980185627937317
vn -0.05237194895744324 0.007697127293795347 -0.9985979795455933
vn -0.04428992420434952 -0.06848642975091934 -0.9966684579849243
vn 0.0023427228443324566 -0.15378068387508392 -0.9881022572517395
vn 0.07957213371992111 -0.23548609018325806 -0.9686148166656494
vn 0.1708473265171051 -0.3135589063167572 -0.9340728521347046
vn 0.2695714235305786 -0.4042743444442749 -0.8740100860595703
vn 0.32270509004592896 -0.4549160301685333 -0.8300077319145203
vn 0.41384953260421753 -0.4317880868911743 -0.801428496837616
vn 0.6505399346351624 -0.44250234961509705 -0.6172435283660889
vn -0.30215921998023987 0.2617022693157196 -0.9166306853294373
vn -0.19222016632556915 0.27611243724823 -0.9417077302932739
vn -0.13532143831253052 0.2904394567012787 -0.9472767114639282
vn -0.10525919497013092 0.29844406247138977 -0.9486051201820374
vn -0.08988720923662186 0.296242892742157 -0.9508735537528992
vn -0.08049866557121277 0.2814796566963196 -0.9561847448348999
vn -0.08365962654352188 0.2843645215034485 -0.9550591111183167
vn -0.10626126080751419 0.22645893692970276 -0.968207061290741
vn -0.07921776920557022 0.14676642417907715 -0.9859940409660339
vn -0.0093105249106884 0.05409638583660126 -0.9984923005104065
vn 0.08353064954280853 -0.05005722865462303 -0.9952471852302551
vn 0.17505207657814026 -0.1530921757221222 -0.9725840091705322
vn 0.2568357288837433 -0.21575909852981567 -0.9420634508132935
vn 0.37898531556129456 -0.22514475882053375 -0.8975967764854431
vn 0.5928177833557129 -0.24566134810447693 -0.7669534683227539
vn -0.11717864125967026 0.5036951303482056 -0.8558974862098694
vn -0.13887406885623932 0.4192483127117157 -0.8971872329711914
vn -0.10116012394428253 0.33844876289367676 -0.9355314373970032
vn -0.026863371953368187 0.2389596700668335 -0.9706578254699707
vn 0.07427740842103958 0.1252553015947342 -0.9893401861190796
vn 0.1828315705060959 0.027671489864587784 -0.9827547669410706
vn 0.3173672556877136 -0.043819278478622437 -0.9472898244857788
vn 0.5075482130050659 -0.11616930365562439 -0.8537561297416687
vn -0.1332714855670929 0.760148823261261 -0.6359342932701111
vn -0.17624884843826294 0.682926595211029 -0.7089059948921204
vn -0.1814923733472824 0.5892273187637329 -0.7873193621635437
vn -0.14597515761852264 0.49635761976242065 -0.8557572364807129
vn -0.04890759661793709 0.38188520073890686 -0.9229148030281067
vn 0.07422401756048203 0.2733357846736908 -0.9590507745742798
vn 0.21517109870910645 0.16765601933002472 -0.9620773792266846
vn 0.3878362476825714 0.05351382493972778 -0.9201735258102417
vn -0.25166094303131104 -0.9255965948104858 -0.2827327251434326
vn -0.0760977491736412 -0.9373980164527893 -0.339844286441803
vn 0.0064629726111888885 -0.9244335293769836 -0.38128840923309326
vn 0.09328304976224899 -0.8872418403625488 -0.45177459716796875
vn 0.27226999402046204 -0.8212101459503174 -0.5014808177947998
vn 0.5842363834381104 -0.7765297293663025 -0.23594382405281067
vn -0.4595179557800293 -0.7541027069091797 -0.4692254364490509
vn -0.4800926446914673 -0.6711919903755188 -0.5648117661476135
vn -0.2689789831638336 -0.5462936162948608 -0.7932298183441162
vn -0.09590104967355728 -0.5442107319831848 -0.8334493041038513
vn 0.03287757560610771 -0.5627398490905762 -0.825980007648468
vn 0.15429075062274933 -0.6000059843063354 -0.7849759459495544
vn 0.290488600730896 -0.7184798717498779 -0.6319834589958191
vn 0.22972624003887177 -0.8607426881790161 -0.4542554020881653
vn 0.13259147107601166 -0.9240404963493347 -0.3585648238658905
vn 0.06189198046922684 -0.9493779540061951 -0.30797892808914185
vn 0.06688998639583588 -0.9532199501991272 -0.2947837710380554
vn -0.46467307209968567 -0.7225751876831055 -0.5118242502212524
vn -0.17761147022247314 -0.7256288528442383 -0.6647684574127197
vn -0.025136420503258705 -0.7317119836807251 -0.6811502575874329
vn 0.09150087833404541 -0.723016619682312 -0.6847441792488098
vn 0.24155418574810028 -0.7139164209365845 -0.6572480797767639
vn 0.4932664930820465 -0.737105131149292 -0.4619136154651642
vn -0.40923237800598145 -0.39739561080932617 -0.8213437795639038
vn 0.23117811977863312 -0.8957222700119019 -0.37978723645210266
vn -0.6564427018165588 -0.6601135730743408 -0.3651480972766876
vn -0.5318084955215454 -0.6756134629249573 -0.5106135606765747
vn 0.3920345902442932 -0.8453857898712158 -0.3628109395503998
vn 0.5931251049041748 -0.7973973155021667 -0.1111760139465332
vn -0.42870843410491943 -0.10785549134016037 -0.8969818353652954
vn 0.3092544972896576 -0.7017926573753357 -0.6417544484138489
vn 0.33752742409706116 -0.5521807670593262 -0.7623461484909058
vn 0.4531826376914978 -0.6349170804023743 -0.625704288482666
vn 0.43138280510902405 -0.7292360067367554 -0.5311533212661743
vn 0.530368983745575 -0.6938449740409851 -0.4871220290660858
vn -0.7033073902130127 -0.3205759525299072 -0.6344996690750122
vn -0.5670979022979736 -0.30742475390434265 -0.7641270160675049
vn 0.4486166834831238 -0.695328414440155 -0.5614814758300781
vn 0.5949841141700745 -0.7318307757377625 -0.33229145407676697
vn -0.4240841865539551 0.12143845111131668 -0.8974437713623047
vn 0.7333275079727173 -0.6573394536972046 -0.17359645664691925
vn -0.7314999103546143 -0.49976909160614014 -0.4638306498527527
vn -0.6744759678840637 -0.32758668065071106 -0.6616412997245789
vn -0.5190505385398865 -0.0509173646569252 -0.8532256484031677
vn -0.5203903317451477 -0.04598848894238472 -0.8526893258094788
vn -0.3705732822418213 0.35687124729156494 -0.857507050037384
vn 0.8278199434280396 -0.4572793245315552 -0.32497668266296387
vn -0.23920978605747223 0.4700200855731964 -0.8496233224868774
vn -0.15394723415374756 0.5045107007026672 -0.849570095539093
vn -0.11111757159233093 0.5161452293395996 -0.8492625951766968
vn -0.09932240098714828 0.5193800926208496 -0.8487516641616821
vn -0.11114773899316788 0.5117641091346741 -0.8519059419631958
vn -0.128813698887825 0.49206119775772095 -0.8609778881072998
vn -0.10633928328752518 0.5190806984901428 -0.8480843901634216
vn -0.6623832583427429 -0.2219601422548294 -0.7155292630195618
vn -0.43240123987197876 -0.08751130104064941 -0.8974246382713318
vn -0.4041191041469574 0.0635618269443512 -0.9124953150749207
vn -0.4053652286529541 0.21167616546154022 -0.8893100023269653
vn -0.13591648638248444 0.725896418094635 -0.6742412447929382
vn 0.7319079637527466 -0.3179224133491516 -0.6026907563209534
vn -0.7353851199150085 -0.14764262735843658 -0.6613701581954956
vn -0.3227974772453308 0.0514070987701416 -0.9450709819793701
vn -0.25676655769348145 0.19720162451267242 -0.9461408257484436
vn -0.25078991055488586 0.3526972830295563 -0.9015038013458252
vn -0.2668456435203552 0.5240899324417114 -0.8087788224220276
vn -0.1856115460395813 0.6717027425765991 -0.7171916365623474
vn -0.12398815155029297 0.7205518484115601 -0.6822258234024048
vn -0.09475032985210419 0.7386715412139893 -0.66737300157547
vn -0.10062753409147263 0.742178738117218 -0.662604570388794
vn -0.13590256869792938 0.7307775616645813 -0.6689503788948059
vn -0.15181460976600647 0.6971889734268188 -0.7006282806396484
vn 0.6791860461235046 -0.17779326438903809 -0.7121067047119141
vn 0.8937480449676514 -0.09852059930562973 -0.43761640787124634
vn -0.17565187811851501 0.9079346656799316 -0.38052746653556824
vn 0.5731643438339233 -0.06673914939165115 -0.8167181611061096
vn -0.2151796668767929 0.9187252521514893 -0.33112189173698425
vn -0.26056721806526184 0.8042568564414978 -0.5341120958328247
vn -0.31569704413414 0.6969290375709534 -0.6439141035079956
vn -0.18490064144134521 0.5686936378479004 -0.8014981746673584
vn -0.055619016289711 0.4789758622646332 -0.8760643601417542
vn 0.08600059896707535 0.37012770771980286 -0.9249915480613708
vn 0.2571530342102051 0.24781540036201477 -0.9340555667877197
vn 0.4474168121814728 0.11747178435325623 -0.8865768909454346
vn -0.8437405228614807 0.08013749867677689 -0.5307352542877197
vn -0.23859161138534546 0.18282529711723328 -0.9537551999092102
vn -0.13654281198978424 0.3703804910182953 -0.9187896251678467
vn -0.121289923787117 0.5535004734992981 -0.8239697217941284
vn -0.13602860271930695 0.7095962762832642 -0.6913533210754395
vn -0.147766575217247 0.8294574618339539 -0.5386700630187988
vn -0.12013810127973557 0.9051499962806702 -0.40776267647743225
vn -0.08205900341272354 0.9368351101875305 -0.3400093615055084
vn -0.06265028566122055 0.9475839734077454 -0.31330427527427673
vn -0.07568784058094025 0.9467841386795044 -0.31284356117248535
vn -0.13975739479064941 0.9180358648300171 -0.3710499405860901
vn 0.5953388810157776 0.04770398139953613 -0.8020573258399963
vn 0.848694920539856 0.033443745225667953 -0.527824342250824
vn -0.5181633830070496 0.713667631149292 -0.4713652431964874
vn -0.2996944785118103 0.6807821989059448 -0.668370246887207
vn -0.17699703574180603 0.6396549940109253 -0.7480064630508423
vn -0.06842236965894699 0.5426419377326965 -0.8371727466583252
vn 0.10926344245672226 0.398787260055542 -0.9105109572410583
vn 0.3414018154144287 0.23682834208011627 -0.909591794013977
vn 0.5487530827522278 0.14698074758052826 -0.82296222448349
vn 0.8375184535980225 0.08901527523994446 -0.5391096472740173
vn -0.6193291544914246 0.740659236907959 -0.2604905664920807
vn -0.3617023527622223 0.7837796211242676 -0.5048375725746155
vn -0.2578210234642029 0.818032443523407 -0.5141511559486389
vn -0.2665327489376068 0.7593579292297363 -0.5935788154602051
vn -0.09049467742443085 0.5329410433769226 -0.8412993550300598
vn 0.13255254924297333 0.3799079954624176 -0.9154778718948364
vn 0.37958434224128723 0.27730023860931396 -0.8826212882995605
vn 0.7575660347938538 0.20352895557880402 -0.620217502117157
vn -0.3753235936164856 0.6913601160049438 -0.6173762083053589
vn -0.04157162457704544 0.49442633986473083 -0.8682248592376709
vn 0.20764155685901642 0.4124893844127655 -0.886982262134552
vn 0.5645062923431396 0.33659860491752625 -0.7536803483963013
vn -0.5253100991249084 0.7706387639045715 -0.3607841432094574
vn -0.13438314199447632 0.6218463182449341 -0.7715233564376831
vn 0.11278395354747772 0.6427942514419556 -0.7576907873153687
vn 0.3824484348297119 0.6387079358100891 -0.6676715612411499
vn -0.3308298885822296 -0.8500229716300964 0.4098934233188629
vn -0.11331327259540558 -0.9457712173461914 0.30442890524864197
vn -0.038469430059194565 -0.9698394536972046 0.24068976938724518
vn -0.006870064418762922 -0.9813648462295532 0.19203107059001923
vn 0.05503597855567932 -0.9932067394256592 0.10252565890550613
vn 0.3421204090118408 -0.9390572309494019 0.03354424238204956
vn -0.5841851830482483 -0.8095590472221375 0.05780935660004616
vn 0.5432714819908142 -0.7064523696899414 0.4536311626434326
vn -0.48837828636169434 -0.5392939448356628 0.6860383749008179
vn -0.19361712038516998 -0.5755887627601624 0.7944872379302979
vn -0.05744071304798126 -0.6551966071128845 0.7532715201377869
vn 0.005339878611266613 -0.6839665770530701 0.7294938564300537
vn 0.05144323408603668 -0.6756126284599304 0.7354598045349121
vn 0.18054503202438354 -0.7268140316009521 0.6626800298690796
vn -0.7060710787773132 -0.695284903049469 0.1343226432800293
vn 0.6652003526687622 -0.7115771770477295 0.22620008885860443
vn -0.546705424785614 -0.7533302307128906 0.3655226230621338
vn -0.4695349931716919 -0.8596015572547913 0.2015494704246521
vn -0.5655366778373718 -0.7969551682472229 0.21220475435256958
vn 0.4676385819911957 -0.8835377097129822 -0.025987226516008377
vn 0.2381829172372818 -0.9659497141838074 0.10104517638683319
vn 0.10137932747602463 -0.9796977639198303 0.17295829951763153
vn 0.047973133623600006 -0.9768032431602478 0.2086961716413498
vn 0.1184157133102417 -0.9884167909622192 0.0949207991361618
vn 0.3397088944911957 -0.9377402663230896 0.07239525020122528
vn -0.4288419783115387 -0.47619035840034485 0.7676830887794495
vn -0.23840667307376862 -0.34857359528541565 0.9064539074897766
vn -0.08673319965600967 -0.36577367782592773 0.9266536831855774
vn 0.014479677192866802 -0.40090692043304443 0.9160044193267822
vn 0.11316065490245819 -0.4301186203956604 0.8956520557403564
vn 0.31722748279571533 -0.4874637722969055 0.813477635383606
vn -0.805955171585083 -0.591971218585968 -0.0025281922426074743
vn 0.5068382620811462 -0.7429706454277039 0.43716078996658325
vn -0.530982494354248 -0.4820352792739868 0.6969215273857117
vn -0.30959370732307434 -0.545449435710907 0.7788688540458679
vn -0.34212765097618103 -0.5062022805213928 0.7916488647460938
vn -0.23714175820350647 -0.2933245897293091 0.9261342287063599
vn -0.1792682707309723 -0.25320592522621155 0.9506574869155884
vn -0.08981074392795563 -0.21230944991111755 0.9730666875839233
vn -0.003916457295417786 -0.22278167307376862 0.9748604893684387
vn 0.08161192387342453 -0.26459676027297974 0.9608995914459229
vn 0.20055434107780457 -0.35327330231666565 0.9137701988220215
vn 0.3827238380908966 -0.5986177921295166 0.703689694404602
vn 0.2572767436504364 -0.756700873374939 0.6010096073150635
vn 0.1370210349559784 -0.7857211232185364 0.6032143831253052
vn 0.08230839669704437 -0.7777795791625977 0.6231246590614319
vn 0.09113671630620956 -0.7642231583595276 0.6384803056716919
vn 0.16556744277477264 -0.790620744228363 0.5894966721534729
vn -0.8372161984443665 -0.5319323539733887 0.12695300579071045
vn 0.6817150712013245 -0.6910189390182495 0.24032792448997498
vn -0.650139331817627 -0.51461261510849 0.5590104460716248
vn -0.7230882048606873 -0.6115866303443909 0.32110029458999634
vn 0.6045265197753906 -0.7936851978302002 -0.0679091215133667
vn 0.5914846062660217 -0.8049598336219788 -0.04675086587667465
vn -0.41839513182640076 -0.34235936403274536 0.8412702083587646
vn -0.2595920264720917 -0.28734248876571655 0.9219796061515808
vn -0.18953312933444977 -0.27529072761535645 0.9424926042556763
vn -0.1768166422843933 -0.19542546570301056 0.9646474719047546
vn -0.11191483587026596 -0.12760905921459198 0.9854902625083923
vn -0.06126489117741585 -0.0983329638838768 0.9932659864425659
vn -0.01271138060837984 -0.08838018774986267 0.9960057139396667
vn 0.03594323247671127 -0.11093375831842422 0.9931776523590088
vn 0.08990266919136047 -0.17328576743602753 0.9807597398757935
vn 0.14300495386123657 -0.2890494167804718 0.9465727806091309
vn 0.14404694736003876 -0.41151148080825806 0.8999493718147278
vn 0.10768963396549225 -0.4903971254825592 0.8648200035095215
vn 0.10509303957223892 -0.5251895189285278 0.8444710969924927
vn 0.17618019878864288 -0.5443329811096191 0.8201598525047302
vn 0.3597355782985687 -0.5571674108505249 0.7484349608421326
vn -0.8859990239143372 -0.44744881987571716 0.1216362938284874
vn 0.728716254234314 -0.6562705636024475 0.19565682113170624
vn -0.4402216970920563 -0.16779333353042603 0.8820716142654419
vn -0.3376278877258301 -0.214053675532341 0.9166179299354553
vn -0.23409001529216766 -0.10099348425865173 0.9669551253318787
vn -0.1870168149471283 -0.11264892667531967 0.97587651014328
vn -0.13205184042453766 -0.09232586622238159 0.9869337677955627
vn -0.09786458313465118 -0.05902980640530586 0.9934475421905518
vn -0.06666956841945648 -0.011519626714289188 0.9977086186408997
vn -0.0296708345413208 0.02273184433579445 0.9993012547492981
vn -0.005171921569854021 0.040444426238536835 0.9991684556007385
vn 0.010079951025545597 0.03779490664601326 0.999234676361084
vn 0.02035479061305523 0.00513851922005415 0.9997796416282654
vn 0.029386015608906746 -0.06169172376394272 0.9976626038551331
vn 0.03295320272445679 -0.14703279733657837 0.9885825514793396
vn 0.03819869086146355 -0.22690142691135406 0.9731683135032654
vn 0.07084578275680542 -0.2932950556278229 0.9533933997154236
vn 0.16263894736766815 -0.3599173426628113 0.9186991453170776
vn 0.3325951397418976 -0.44927090406417847 0.829177975654602
vn 0.5552963614463806 -0.6175612211227417 0.5570136308670044
vn 0.6107048392295837 -0.7230232954025269 0.3229195475578308
vn -0.9149889945983887 -0.25445786118507385 0.31312358379364014
vn 0.7876204252243042 -0.6123880743980408 0.06808075308799744
vn 0.7511111497879028 -0.6216351389884949 -0.22226537764072418
vn 0.8094366192817688 -0.45152953267097473 -0.3754110634326935
vn -0.3331151306629181 0.016440805047750473 0.9427428245544434
vn -0.21550549566745758 0.047809064388275146 0.9753316044807434
vn -0.18688058853149414 0.08572475612163544 0.9786352515220642
vn -0.1295512318611145 0.10462125390768051 0.9860379695892334
vn -0.09160308539867401 0.10202505439519882 0.9905552864074707
vn -0.05764424800872803 0.11337562650442123 0.9918785691261292
vn -0.02655593492090702 0.13731427490711212 0.990171492099762
vn -0.0004614346253219992 0.16747330129146576 0.9858765006065369
vn 0.01025979034602642 0.19377373158931732 0.9809926748275757
vn 0.0005863812402822077 0.20619745552539825 0.9785102605819702
vn -0.024465719237923622 0.1937652975320816 0.9807428121566772
vn -0.05181242898106575 0.14717809855937958 0.9877520799636841
vn -0.06015777960419655 0.07062892615795135 0.9956870675086975
vn -0.04089263826608658 -0.012756838463246822 0.9990821480751038
vn 0.004729477223008871 -0.08881928026676178 0.9960365295410156
vn 0.09107481688261032 -0.1703389286994934 0.981167733669281
vn 0.23036597669124603 -0.2788321375846863 0.9323005080223083
vn 0.4048927128314972 -0.42799830436706543 0.8080095052719116
vn 0.5856343507766724 -0.585293710231781 0.560770571231842
vn -0.8069484233856201 -0.0982973650097847 0.5823846459388733
vn 0.9092726111412048 -0.33220309019088745 0.2507277727127075
vn -0.20012398064136505 0.22869166731834412 0.9527069926261902
vn -0.12155628949403763 0.285938024520874 0.9505069851875305
vn -0.10527023673057556 0.33123621344566345 0.9376571178436279
vn -0.09229554235935211 0.361721932888031 0.9277061820030212
vn -0.06863633543252945 0.36513620615005493 0.9284204840660095
vn -0.040734510868787766 0.3592003881931305 0.9323710799217224
vn -0.007884755730628967 0.36227551102638245 0.9320377707481384
vn 0.02091994322836399 0.37955591082572937 0.9249323010444641
vn 0.026963330805301666 0.4099982678890228 0.9116877317428589
vn -0.00617863517254591 0.4366992712020874 0.8995863795280457
vn -0.06352285295724869 0.43737688660621643 0.8970319628715515
vn -0.13825662434101105 0.39705920219421387 0.9073197245597839
vn -0.17385534942150116 0.29970499873161316 0.9380571842193604
vn -0.13327766954898834 0.18152743577957153 0.9743125438690186
vn -0.07264899462461472 0.09389755874872208 0.9929276704788208
vn 0.006888330448418856 0.01158162485808134 0.9999092221260071
vn 0.12007211893796921 -0.0885845273733139 0.9888050556182861
vn 0.26363375782966614 -0.2198832780122757 0.9392277002334595
vn 0.4077795743942261 -0.37596818804740906 0.832084059715271
vn 0.5568832159042358 -0.5794380307197571 0.5950905680656433
vn 0.6867692470550537 -0.6374694108963013 0.34925752878189087
vn -0.7020722031593323 0.42952433228492737 0.5679819583892822
vn 0.9579644799232483 -0.01980985514819622 0.28620225191116333
vn -0.4166150689125061 0.6663171648979187 -0.618428111076355
vn -0.02848496101796627 0.8010199069976807 -0.5979596972465515
vn 0.0006097884615883231 0.9362305998802185 -0.35138577222824097
vn -0.030944105237722397 0.9839268326759338 -0.17587049305438995
vn -0.06856577843427658 0.9970889687538147 -0.033352386206388474
vn -0.08167126774787903 0.9921648502349854 0.09454525262117386
vn -0.05978115648031235 0.9803404211997986 0.18803967535495758
vn -0.026050012558698654 0.9719904661178589 0.23357243835926056
vn -0.006112766917794943 0.9706172943115234 0.24055099487304688
vn -0.032917290925979614 0.9778348803520203 0.20677386224269867
vn -0.15214967727661133 0.9802361726760864 0.1264421045780182
vn -0.2444881647825241 0.9359278082847595 0.2535049319267273
vn -0.44043728709220886 0.8962433934211731 -0.05256269499659538
vn -0.16687944531440735 0.8805848956108093 0.4435329735279083
vn 0.0050084651447832584 0.8114240169525146 0.5844364762306213
vn -0.011480449698865414 0.7780930399894714 0.6280441880226135
vn -0.03997708112001419 0.764290452003479 0.6436318755149841
vn -0.0546141043305397 0.744918167591095 0.6649167537689209
vn -0.04562852159142494 0.7184210419654846 0.6941103935241699
vn -0.016854126006364822 0.6980372071266174 0.7158631086349487
vn 0.01699993573129177 0.693745493888855 0.7200196385383606
vn 0.03051053173840046 0.710853099822998 0.7026785016059875
vn -0.012975226156413555 0.7450800538063049 0.6668488383293152
vn -0.12121176719665527 0.7512306571006775 0.6488145589828491
vn -0.21939541399478912 0.731285572052002 0.6458228230476379
vn -0.41131365299224854 0.6086177825927734 0.6785318851470947
vn -0.26159903407096863 0.37176835536956787 0.8907043933868408
vn -0.15911635756492615 0.2691214978694916 0.9498713612556458
vn -0.07835306972265244 0.18541143834590912 0.9795322418212891
vn 0.019580544903874397 0.09058462083339691 0.9956962466239929
vn 0.14585095643997192 -0.020975707098841667 0.9890841841697693
vn 0.2824367880821228 -0.14219194650650024 0.9486890435218811
vn 0.40202033519744873 -0.2549416422843933 0.8794227838516235
vn 0.539604902267456 -0.2925005555152893 0.7894744873046875
vn -0.6931390166282654 0.6984331607818604 0.17818374931812286
vn 0.9816678762435913 0.06971364468336105 0.17739294469356537
vn -0.39919668436050415 0.5222973227500916 0.7535566091537476
vn -0.23757614195346832 0.4555904269218445 0.8579015135765076
vn -0.17112135887145996 0.37863171100616455 0.9095908999443054
vn -0.08501724153757095 0.26869580149650574 0.9594658613204956
vn 0.044538792222738266 0.1477077305316925 0.9880276918411255
vn 0.19515401124954224 0.042186371982097626 0.9798648953437805
vn 0.36503419280052185 -0.04098755121231079 0.9300914406776428
vn 0.6060189008712769 -0.0654883161187172 0.7927499413490295
vn -0.6048697233200073 0.7046487331390381 0.3709486126899719
vn 0.9818354845046997 0.14290866255760193 0.12480485439300537
vn -0.44526952505111694 0.8947198987007141 -0.034805115312337875
vn -0.26330333948135376 0.9647125005722046 0.0011168813798576593
vn -0.3109560012817383 0.9499526023864746 0.02994023822247982
vn -0.4573335647583008 0.8839287757873535 0.09754949808120728
vn -0.3226699233055115 0.768081784248352 0.5531135201454163
vn -0.25124627351760864 0.7316768765449524 0.6336594820022583
vn -0.28480973839759827 0.690247118473053 0.6651633381843567
vn -0.2761519253253937 0.5296604633331299 0.8019974827766418
vn -0.06615246832370758 0.29530906677246094 0.9531087875366211
vn 0.1140437126159668 0.1828199177980423 0.9765095710754395
vn 0.32647424936294556 0.10032528638839722 0.9398667216300964
vn 0.6473581194877625 0.06200798228383064 0.7596595287322998
vn -0.5790523886680603 0.7559291124343872 0.30540043115615845
vn 0.963295042514801 0.2678440511226654 0.017952917143702507
vn -0.19113843142986298 0.4249347150325775 0.884814441204071
vn 0.04279603436589241 0.3092552721500397 0.950015664100647
vn 0.2685573399066925 0.22097787261009216 0.9375744462013245
vn 0.6407715678215027 0.16363397240638733 0.7500905394554138
vn -0.46038591861724854 0.7288804054260254 0.5067328214645386
vn 0.8307523131370544 0.525722324848175 -0.18293911218643188
vn -0.2756340205669403 0.9537031650543213 -0.12031714618206024
vn 0.09834614396095276 0.9926329255104065 -0.07076611369848251
vn 0.2859995365142822 0.9497541785240173 0.1271664947271347
vn 0.5649577975273132 0.7600590586662292 0.3211432993412018
vn -0.09097103774547577 0.7000450491905212 0.7082805037498474
vn 0.0765962079167366 0.5585959553718567 0.8258956074714661
vn 0.22691328823566437 0.4439049959182739 0.8668672442436218
vn 0.6044874787330627 0.322826623916626 0.7282704710960388

g grp1
usemtl mtl1
f 1//1 75//75 92//92 
f 1//1 2//2 76//76 
f 75//75 1//1 76//76 
f 2//2 3//3 77//77 
f 76//76 2//2 77//77 
f 3//3 4//4 78//78 
f 77//77 3//3 78//78 
f 4//4 5//5 79//79 
f 78//78 4//4 79//79 
f 5//5 6//6 80//80 
f 79//79 5//5 80//80 
f 6//6 7//7 81//81 
f 80//80 6//6 81//81 
f 7//7 8//8 82//82 
f 81//81 7//7 82//82 
f 8//8 9//9 83//83 
f 82//82 8//8 83//83 
f 9//9 10//10 84//84 
f 83//83 9//9 84//84 
f 10//10 11//11 85//85 
f 84//84 10//10 85//85 
f 85//85 11//11 93//93 
f 12//12 1//1 92//92 
f 98//98 12//12 92//92 
f 2//2 1//1 13//13 
f 13//13 1//1 12//12 
f 3//3 2//2 14//14 
f 14//14 2//2 13//13 
f 4//4 3//3 15//15 
f 15//15 3//3 14//14 
f 5//5 4//4 16//16 
f 16//16 4//4 15//15 
f 6//6 5//5 17//17 
f 17//17 5//5 16//16 
f 7//7 6//6 18//18 
f 18//18 6//6 17//17 
f 8//8 7//7 19//19 
f 19//19 7//7 18//18 
f 9//9 8//8 20//20 
f 20//20 8//8 19//19 
f 10//10 9//9 21//21 
f 21//21 9//9 20//20 
f 11//11 10//10 22//22 
f 22//22 10//10 21//21 
f 99//99 93//93 11//11 
f 22//22 99//99 11//11 
f 23//23 12//12 98//98 
f 108//108 23//23 98//98 
f 13//13 12//12 24//24 
f 24//24 12//12 23//23 
f 14//14 13//13 25//25 
f 25//25 13//13 24//24 
f 15//15 14//14 26//26 
f 26//26 14//14 25//25 
f 16//16 15//15 27//27 
f 27//27 15//15 26//26 
f 17//17 16//16 28//28 
f 28//28 16//16 27//27 
f 18//18 17//17 29//29 
f 29//29 17//17 28//28 
f 19//19 18//18 30//30 
f 30//30 18//18 29//29 
f 20//20 19//19 31//31 
f 31//31 19//19 30//30 
f 21//21 20//20 32//32 
f 32//32 20//20 31//31 
f 22//22 21//21 33//33 
f 33//33 21//21 32//32 
f 100//100 99//99 22//22 
f 100//100 22//22 34//34 
f 34//34 22//22 33//33 
f 34//34 35//35 101//101 
f 100//100 34//34 101//101 
f 35//35 36//36 102//102 
f 101//101 35//35 102//102 
f 36//36 37//37 103//103 
f 102//102 36//36 103//103 
f 103//103 37//37 109//109 
f 38//38 23//23 108//108 
f 114//114 38//38 108//108 
f 24//24 23//23 39//39 
f 39//39 23//23 38//38 
f 25//25 24//24 40//40 
f 40//40 24//24 39//39 
f 26//26 25//25 41//41 
f 41//41 25//25 40//40 
f 27//27 26//26 42//42 
f 42//42 26//26 41//41 
f 28//28 27//27 43//43 
f 43//43 27//27 42//42 
f 29//29 28//28 44//44 
f 44//44 28//28 43//43 
f 30//30 29//29 45//45 
f 45//45 29//29 44//44 
f 31//31 30//30 46//46 
f 46//46 30//30 45//45 
f 32//32 31//31 47//47 
f 47//47 31//31 46//46 
f 33//33 32//32 48//48 
f 48//48 32//32 47//47 
f 34//34 33//33 49//49 
f 49//49 33//33 48//48 
f 35//35 34//34 50//50 
f 50//50 34//34 49//49 
f 36//36 35//35 51//51 
f 51//51 35//35 50//50 
f 37//37 36//36 52//52 
f 52//52 36//36 51//51 
f 115//115 109//109 37//37 
f 52//52 115//115 37//37 
f 38//38 114//114 116//116 
f 39//39 38//38 116//116 
f 117//117 39//39 116//116 
f 40//40 39//39 117//117 
f 118//118 40//40 117//117 
f 41//41 40//40 118//118 
f 119//119 41//41 118//118 
f 42//42 41//41 119//119 
f 120//120 42//42 119//119 
f 43//43 42//42 120//120 
f 121//121 43//43 120//120 
f 44//44 43//43 121//121 
f 122//122 44//44 121//121 
f 122//122 127//127 53//53 
f 122//122 53//53 44//44 
f 44//44 53//53 45//45 
f 46//46 45//45 54//54 
f 54//54 45//45 53//53 
f 47//47 46//46 55//55 
f 55//55 46//46 54//54 
f 48//48 47//47 56//56 
f 56//56 47//47 55//55 
f 49//49 48//48 57//57 
f 57//57 48//48 56//56 
f 50//50 49//49 58//58 
f 58//58 49//49 57//57 
f 51//51 50//50 59//59 
f 59//59 50//50 58//58 
f 52//52 51//51 60//60 
f 60//60 51//51 59//59 
f 128//128 115//115 52//52 
f 60//60 128//128 52//52 
f 61//61 53//53 127//127 
f 142//142 61//61 127//127 
f 54//54 53//53 62//62 
f 62//62 53//53 61//61 
f 55//55 54//54 63//63 
f 63//63 54//54 62//62 
f 56//56 55//55 64//64 
f 64//64 55//55 63//63 
f 57//57 56//56 65//65 
f 65//65 56//56 64//64 
f 58//58 57//57 66//66 
f 66//66 57//57 65//65 
f 59//59 58//58 67//67 
f 67//67 58//58 66//66 
f 60//60 59//59 68//68 
f 68//68 59//59 67//67 
f 143//143 128//128 60//60 
f 68//68 143//143 60//60 
f 61//61 142//142 144//144 
f 62//62 61//61 144//144 
f 145//145 62//62 144//144 
f 63//63 62//62 145//145 
f 146//146 63//63 145//145 
f 64//64 63//63 146//146 
f 147//147 64//64 146//146 
f 65//65 64//64 147//147 
f 148//148 65//65 147//147 
f 66//66 65//65 148//148 
f 149//149 66//66 148//148 
f 67//67 66//66 149//149 
f 150//150 67//67 149//149 
f 68//68 67//67 150//150 
f 151//151 68//68 150//150 
f 143//143 68//68 151//151 
f 69//69 189//189 195//195 
f 69//69 70//70 190//190 
f 189//189 69//69 190//190 
f 70//70 71//71 191//191 
f 190//190 70//70 191//191 
f 71//71 72//72 192//192 
f 191//191 71//71 192//192 
f 72//72 73//73 193//193 
f 192//192 72//72 193//193 
f 73//73 74//74 194//194 
f 193//193 73//73 194//194 
f 194//194 74//74 196//196 
f 86//86 69//69 195//195 
f 203//203 86//86 195//195 
f 70//70 69//69 87//87 
f 87//87 69//69 86//86 
f 71//71 70//70 88//88 
f 88//88 70//70 87//87 
f 72//72 71//71 89//89 
f 89//89 71//71 88//88 
f 73//73 72//72 90//90 
f 90//90 72//72 89//89 
f 74//74 73//73 91//91 
f 91//91 73//73 90//90 
f 204//204 196//196 74//74 
f 91//91 204//204 74//74 
f 94//94 205//205 220//220 
f 94//94 95//95 206//206 
f 205//205 94//94 206//206 
f 95//95 92//92 75//75 
f 95//95 75//75 206//206 
f 206//206 75//75 207//207 
f 203//203 76//76 86//86 
f 203//203 207//207 76//76 
f 207//207 75//75 76//76 
f 77//77 86//86 76//76 
f 87//87 86//86 77//77 
f 78//78 87//87 77//77 
f 88//88 87//87 78//78 
f 79//79 88//88 78//78 
f 89//89 88//88 79//79 
f 80//80 89//89 79//79 
f 90//90 89//89 80//80 
f 81//81 90//90 80//80 
f 91//91 90//90 81//81 
f 91//91 208//208 204//204 
f 91//91 81//81 208//208 
f 81//81 82//82 208//208 
f 83//83 209//209 82//82 
f 82//82 209//209 208//208 
f 84//84 210//210 83//83 
f 83//83 210//210 209//209 
f 85//85 211//211 84//84 
f 84//84 211//211 210//210 
f 93//93 96//96 212//212 
f 93//93 212//212 85//85 
f 85//85 212//212 211//211 
f 96//96 97//97 213//213 
f 212//212 96//96 213//213 
f 213//213 97//97 221//221 
f 104//104 94//94 220//220 
f 237//237 104//104 220//220 
f 95//95 94//94 105//105 
f 105//105 94//94 104//104 
f 92//92 105//105 98//98 
f 95//95 105//105 92//92 
f 96//96 99//99 106//106 
f 93//93 99//99 96//96 
f 97//97 96//96 107//107 
f 107//107 96//96 106//106 
f 238//238 221//221 97//97 
f 107//107 238//238 97//97 
f 110//110 239//239 258//258 
f 110//110 111//111 240//240 
f 239//239 110//110 240//240 
f 237//237 240//240 111//111 
f 237//237 111//111 104//104 
f 104//104 111//111 112//112 
f 105//105 104//104 113//113 
f 113//113 104//104 112//112 
f 98//98 113//113 108//108 
f 105//105 113//113 98//98 
f 99//99 100//100 106//106 
f 101//101 106//106 100//100 
f 107//107 106//106 101//101 
f 107//107 241//241 238//238 
f 107//107 101//101 241//241 
f 101//101 102//102 241//241 
f 103//103 242//242 102//102 
f 102//102 242//242 241//241 
f 242//242 103//103 109//109 
f 259//259 242//242 109//109 
f 123//123 110//110 258//258 
f 279//279 123//123 258//258 
f 111//111 110//110 124//124 
f 124//124 110//110 123//123 
f 112//112 111//111 125//125 
f 125//125 111//111 124//124 
f 113//113 112//112 126//126 
f 126//126 112//112 125//125 
f 108//108 126//126 114//114 
f 113//113 126//126 108//108 
f 109//109 115//115 259//259 
f 259//259 115//115 280//280 
f 129//129 123//123 279//279 
f 302//302 129//129 279//279 
f 124//124 123//123 130//130 
f 130//130 123//123 129//129 
f 125//125 124//124 131//131 
f 131//131 124//124 130//130 
f 126//126 125//125 132//132 
f 132//132 125//125 131//131 
f 114//114 133//133 116//116 
f 114//114 126//126 133//133 
f 126//126 132//132 133//133 
f 116//116 134//134 117//117 
f 133//133 134//134 116//116 
f 117//117 135//135 118//118 
f 134//134 135//135 117//117 
f 118//118 136//136 119//119 
f 135//135 136//136 118//118 
f 119//119 137//137 120//120 
f 136//136 137//137 119//119 
f 120//120 138//138 121//121 
f 137//137 138//138 120//120 
f 121//121 139//139 122//122 
f 138//138 139//139 121//121 
f 122//122 139//139 127//127 
f 281//281 128//128 140//140 
f 281//281 280//280 128//128 
f 280//280 115//115 128//128 
f 140//140 141//141 282//282 
f 281//281 140//140 282//282 
f 282//282 141//141 303//303 
f 152//152 129//129 302//302 
f 325//325 152//152 302//302 
f 130//130 129//129 153//153 
f 153//153 129//129 152//152 
f 131//131 130//130 154//154 
f 154//154 130//130 153//153 
f 132//132 131//131 155//155 
f 155//155 131//131 154//154 
f 133//133 132//132 156//156 
f 156//156 132//132 155//155 
f 134//134 133//133 157//157 
f 157//157 133//133 156//156 
f 135//135 134//134 158//158 
f 158//158 134//134 157//157 
f 136//136 135//135 159//159 
f 159//159 135//135 158//158 
f 137//137 136//136 160//160 
f 160//160 136//136 159//159 
f 138//138 137//137 161//161 
f 161//161 137//137 160//160 
f 139//139 138//138 162//162 
f 162//162 138//138 161//161 
f 127//127 162//162 142//142 
f 139//139 162//162 127//127 
f 140//140 143//143 163//163 
f 128//128 143//143 140//140 
f 141//141 140//140 164//164 
f 164//164 140//140 163//163 
f 326//326 303//303 141//141 
f 164//164 326//326 141//141 
f 152//152 325//325 327//327 
f 153//153 152//152 327//327 
f 328//328 153//153 327//327 
f 154//154 153//153 328//328 
f 329//329 154//154 328//328 
f 155//155 154//154 329//329 
f 330//330 155//155 329//329 
f 156//156 155//155 330//330 
f 331//331 156//156 330//330 
f 157//157 156//156 331//331 
f 332//332 157//157 331//331 
f 158//158 157//157 332//332 
f 333//333 158//158 332//332 
f 159//159 158//158 333//333 
f 334//334 159//159 333//333 
f 160//160 159//159 334//334 
f 335//335 160//160 334//334 
f 161//161 160//160 335//335 
f 336//336 161//161 335//335 
f 162//162 161//161 336//336 
f 337//337 162//162 336//336 
f 142//142 162//162 337//337 
f 142//142 337//337 144//144 
f 144//144 337//337 338//338 
f 145//145 144//144 339//339 
f 144//144 338//338 339//339 
f 165//165 339//339 361//361 
f 165//165 146//146 339//339 
f 146//146 145//145 339//339 
f 146//146 166//166 147//147 
f 165//165 166//166 146//146 
f 147//147 167//167 148//148 
f 166//166 167//167 147//147 
f 148//148 168//168 149//149 
f 167//167 168//168 148//148 
f 149//149 169//169 150//150 
f 168//168 169//169 149//149 
f 150//150 170//170 151//151 
f 169//169 170//170 150//150 
f 151//151 163//163 143//143 
f 151//151 170//170 163//163 
f 170//170 171//171 163//163 
f 164//164 163//163 172//172 
f 172//172 163//163 171//171 
f 362//362 326//326 164//164 
f 172//172 362//362 164//164 
f 173//173 165//165 361//361 
f 371//371 173//173 361//361 
f 166//166 165//165 174//174 
f 174//174 165//165 173//173 
f 167//167 166//166 175//175 
f 175//175 166//166 174//174 
f 168//168 167//167 176//176 
f 176//176 167//167 175//175 
f 169//169 168//168 177//177 
f 177//177 168//168 176//176 
f 170//170 169//169 178//178 
f 178//178 169//169 177//177 
f 171//171 170//170 179//179 
f 179//179 170//170 178//178 
f 172//172 171//171 180//180 
f 180//180 171//171 179//179 
f 372//372 362//362 172//172 
f 180//180 372//372 172//172 
f 173//173 371//371 373//373 
f 174//174 173//173 373//373 
f 374//374 174//174 373//373 
f 175//175 174//174 374//374 
f 375//375 175//175 374//374 
f 176//176 175//175 375//375 
f 376//376 176//176 375//375 
f 376//376 385//385 181//181 
f 376//376 181//181 176//176 
f 176//176 181//181 177//177 
f 178//178 177//177 182//182 
f 182//182 177//177 181//181 
f 179//179 178//178 183//183 
f 183//183 178//178 182//182 
f 180//180 179//179 184//184 
f 184//184 179//179 183//183 
f 386//386 372//372 180//180 
f 184//184 386//386 180//180 
f 185//185 181//181 385//385 
f 391//391 185//185 385//385 
f 182//182 181//181 186//186 
f 186//186 181//181 185//185 
f 183//183 182//182 187//187 
f 187//187 182//182 186//186 
f 184//184 183//183 188//188 
f 188//188 183//183 187//187 
f 392//392 386//386 184//184 
f 188//188 392//392 184//184 
f 185//185 391//391 393//393 
f 186//186 185//185 393//393 
f 394//394 186//186 393//393 
f 187//187 186//186 394//394 
f 395//395 187//187 394//394 
f 188//188 187//187 395//395 
f 396//396 188//188 395//395 
f 392//392 188//188 396//396 
f 189//189 197//197 195//195 
f 189//189 190//190 198//198 
f 197//197 189//189 198//198 
f 190//190 191//191 199//199 
f 198//198 190//190 199//199 
f 191//191 192//192 200//200 
f 199//199 191//191 200//200 
f 192//192 193//193 201//201 
f 200//200 192//192 201//201 
f 193//193 194//194 202//202 
f 201//201 193//193 202//202 
f 194//194 196//196 202//202 
f 197//197 214//214 203//203 
f 195//195 197//197 203//203 
f 198//198 215//215 197//197 
f 215//215 214//214 197//197 
f 199//199 216//216 198//198 
f 216//216 215//215 198//198 
f 200//200 217//217 199//199 
f 217//217 216//216 199//199 
f 201//201 218//218 200//200 
f 218//218 217//217 200//200 
f 202//202 219//219 201//201 
f 219//219 218//218 201//201 
f 196//196 204//204 219//219 
f 202//202 196//196 219//219 
f 205//205 222//222 220//220 
f 205//205 206//206 223//223 
f 222//222 205//205 223//223 
f 206//206 207//207 224//224 
f 223//223 206//206 224//224 
f 207//207 203//203 214//214 
f 207//207 214//214 224//224 
f 224//224 214//214 225//225 
f 215//215 226//226 214//214 
f 226//226 225//225 214//214 
f 216//216 227//227 215//215 
f 227//227 226//226 215//215 
f 217//217 228//228 216//216 
f 228//228 227//227 216//216 
f 218//218 229//229 217//217 
f 229//229 228//228 217//217 
f 219//219 230//230 218//218 
f 230//230 229//229 218//218 
f 204//204 208//208 231//231 
f 204//204 231//231 219//219 
f 219//219 231//231 230//230 
f 208//208 209//209 232//232 
f 231//231 208//208 232//232 
f 209//209 210//210 233//233 
f 232//232 209//209 233//233 
f 210//210 211//211 234//234 
f 233//233 210//210 234//234 
f 211//211 212//212 235//235 
f 234//234 211//211 235//235 
f 212//212 213//213 236//236 
f 235//235 212//212 236//236 
f 213//213 221//221 236//236 
f 222//222 243//243 237//237 
f 220//220 222//222 237//237 
f 223//223 244//244 222//222 
f 244//244 243//243 222//222 
f 224//224 245//245 223//223 
f 245//245 244//244 223//223 
f 225//225 246//246 224//224 
f 246//246 245//245 224//224 
f 226//226 247//247 225//225 
f 247//247 246//246 225//225 
f 227//227 248//248 226//226 
f 248//248 247//247 226//226 
f 228//228 249//249 227//227 
f 249//249 248//248 227//227 
f 229//229 250//250 228//228 
f 250//250 249//249 228//228 
f 230//230 251//251 229//229 
f 251//251 250//250 229//229 
f 231//231 252//252 230//230 
f 252//252 251//251 230//230 
f 232//232 253//253 231//231 
f 253//253 252//252 231//231 
f 233//233 254//254 232//232 
f 254//254 253//253 232//232 
f 234//234 255//255 233//233 
f 255//255 254//254 233//233 
f 235//235 256//256 234//234 
f 256//256 255//255 234//234 
f 236//236 257//257 235//235 
f 257//257 256//256 235//235 
f 221//221 238//238 257//257 
f 236//236 221//221 257//257 
f 239//239 260//260 258//258 
f 239//239 240//240 261//261 
f 260//260 239//239 261//261 
f 240//240 237//237 243//243 
f 240//240 243//243 261//261 
f 261//261 243//243 262//262 
f 244//244 263//263 243//243 
f 263//263 262//262 243//243 
f 245//245 264//264 244//244 
f 264//264 263//263 244//244 
f 246//246 265//265 245//245 
f 265//265 264//264 245//245 
f 247//247 266//266 246//246 
f 266//266 265//265 246//246 
f 248//248 267//267 247//247 
f 267//267 266//266 247//247 
f 249//249 268//268 248//248 
f 268//268 267//267 248//248 
f 250//250 269//269 249//249 
f 269//269 268//268 249//249 
f 251//251 270//270 250//250 
f 270//270 269//269 250//250 
f 252//252 271//271 251//251 
f 271//271 270//270 251//251 
f 253//253 272//272 252//252 
f 272//272 271//271 252//252 
f 254//254 273//273 253//253 
f 273//273 272//272 253//253 
f 255//255 274//274 254//254 
f 274//274 273//273 254//254 
f 256//256 275//275 255//255 
f 275//275 274//274 255//255 
f 257//257 276//276 256//256 
f 276//276 275//275 256//256 
f 238//238 241//241 277//277 
f 238//238 277//277 257//257 
f 257//257 277//277 276//276 
f 241//241 242//242 278//278 
f 277//277 241//241 278//278 
f 242//242 259//259 278//278 
f 260//260 283//283 279//279 
f 258//258 260//260 279//279 
f 261//261 284//284 260//260 
f 284//284 283//283 260//260 
f 262//262 285//285 261//261 
f 285//285 284//284 261//261 
f 263//263 286//286 262//262 
f 286//286 285//285 262//262 
f 264//264 287//287 263//263 
f 287//287 286//286 263//263 
f 265//265 288//288 264//264 
f 288//288 287//287 264//264 
f 266//266 289//289 265//265 
f 289//289 288//288 265//265 
f 267//267 290//290 266//266 
f 290//290 289//289 266//266 
f 268//268 291//291 267//267 
f 291//291 290//290 267//267 
f 269//269 292//292 268//268 
f 292//292 291//291 268//268 
f 270//270 293//293 269//269 
f 293//293 292//292 269//269 
f 271//271 294//294 270//270 
f 294//294 293//293 270//270 
f 272//272 295//295 271//271 
f 295//295 294//294 271//271 
f 273//273 296//296 272//272 
f 296//296 295//295 272//272 
f 274//274 297//297 273//273 
f 297//297 296//296 273//273 
f 275//275 298//298 274//274 
f 298//298 297//297 274//274 
f 276//276 299//299 275//275 
f 299//299 298//298 275//275 
f 277//277 300//300 276//276 
f 300//300 299//299 276//276 
f 278//278 301//301 277//277 
f 301//301 300//300 277//277 
f 259//259 280//280 301//301 
f 278//278 259//259 301//301 
f 283//283 304//304 302//302 
f 279//279 283//283 302//302 
f 284//284 305//305 283//283 
f 305//305 304//304 283//283 
f 285//285 306//306 284//284 
f 306//306 305//305 284//284 
f 286//286 307//307 285//285 
f 307//307 306//306 285//285 
f 287//287 308//308 286//286 
f 308//308 307//307 286//286 
f 288//288 309//309 287//287 
f 309//309 308//308 287//287 
f 289//289 310//310 288//288 
f 310//310 309//309 288//288 
f 290//290 311//311 289//289 
f 311//311 310//310 289//289 
f 291//291 312//312 290//290 
f 312//312 311//311 290//290 
f 292//292 313//313 291//291 
f 313//313 312//312 291//291 
f 293//293 314//314 292//292 
f 314//314 313//313 292//292 
f 294//294 315//315 293//293 
f 315//315 314//314 293//293 
f 295//295 316//316 294//294 
f 316//316 315//315 294//294 
f 296//296 317//317 295//295 
f 317//317 316//316 295//295 
f 297//297 318//318 296//296 
f 318//318 317//317 296//296 
f 298//298 319//319 297//297 
f 319//319 318//318 297//297 
f 299//299 320//320 298//298 
f 320//320 319//319 298//298 
f 300//300 321//321 299//299 
f 321//321 320//320 299//299 
f 301//301 322//322 300//300 
f 322//322 321//321 300//300 
f 280//280 281//281 323//323 
f 280//280 323//323 301//301 
f 301//301 323//323 322//322 
f 281//281 282//282 324//324 
f 323//323 281//281 324//324 
f 282//282 303//303 324//324 
f 304//304 340//340 325//325 
f 302//302 304//304 325//325 
f 305//305 341//341 304//304 
f 341//341 340//340 304//304 
f 306//306 342//342 305//305 
f 342//342 341//341 305//305 
f 307//307 343//343 306//306 
f 343//343 342//342 306//306 
f 308//308 344//344 307//307 
f 344//344 343//343 307//307 
f 309//309 345//345 308//308 
f 345//345 344//344 308//308 
f 310//310 346//346 309//309 
f 346//346 345//345 309//309 
f 311//311 347//347 310//310 
f 347//347 346//346 310//310 
f 312//312 348//348 311//311 
f 348//348 347//347 311//311 
f 313//313 349//349 312//312 
f 349//349 348//348 312//312 
f 314//314 350//350 313//313 
f 350//350 349//349 313//313 
f 315//315 351//351 314//314 
f 351//351 350//350 314//314 
f 316//316 352//352 315//315 
f 352//352 351//351 315//315 
f 317//317 353//353 316//316 
f 353//353 352//352 316//316 
f 318//318 354//354 317//317 
f 354//354 353//353 317//317 
f 319//319 355//355 318//318 
f 355//355 354//354 318//318 
f 320//320 356//356 319//319 
f 356//356 355//355 319//319 
f 321//321 357//357 320//320 
f 357//357 356//356 320//320 
f 322//322 358//358 321//321 
f 358//358 357//357 321//321 
f 323//323 359//359 322//322 
f 359//359 358//358 322//322 
f 324//324 360//360 323//323 
f 360//360 359//359 323//323 
f 303//303 326//326 360//360 
f 324//324 303//303 360//360 
f 325//325 340//340 327//327 
f 328//328 327//327 340//340 
f 341//341 328//328 340//340 
f 329//329 328//328 341//341 
f 342//342 329//329 341//341 
f 330//330 329//329 342//342 
f 343//343 330//330 342//342 
f 331//331 330//330 343//343 
f 344//344 331//331 343//343 
f 332//332 331//331 344//344 
f 345//345 332//332 344//344 
f 333//333 332//332 345//345 
f 346//346 333//333 345//345 
f 334//334 333//333 346//346 
f 347//347 334//334 346//346 
f 335//335 334//334 347//347 
f 348//348 335//335 347//347 
f 336//336 335//335 348//348 
f 349//349 336//336 348//348 
f 337//337 336//336 349//349 
f 350//350 337//337 349//349 
f 338//338 337//337 350//350 
f 351//351 338//338 350//350 
f 339//339 338//338 351//351 
f 352//352 339//339 351//351 
f 361//361 339//339 352//352 
f 361//361 352//352 363//363 
f 363//363 352//352 353//353 
f 354//354 364//364 353//353 
f 364//364 363//363 353//353 
f 355//355 365//365 354//354 
f 365//365 364//364 354//354 
f 356//356 366//366 355//355 
f 366//366 365//365 355//355 
f 357//357 367//367 356//356 
f 367//367 366//366 356//356 
f 358//358 368//368 357//357 
f 368//368 367//367 357//357 
f 359//359 369//369 358//358 
f 369//369 368//368 358//358 
f 360//360 370//370 359//359 
f 370//370 369//369 359//359 
f 326//326 362//362 370//370 
f 360//360 326//326 370//370 
f 363//363 377//377 371//371 
f 361//361 363//363 371//371 
f 364//364 378//378 363//363 
f 378//378 377//377 363//363 
f 365//365 379//379 364//364 
f 379//379 378//378 364//364 
f 366//366 380//380 365//365 
f 380//380 379//379 365//365 
f 367//367 381//381 366//366 
f 381//381 380//380 366//366 
f 368//368 382//382 367//367 
f 382//382 381//381 367//367 
f 369//369 383//383 368//368 
f 383//383 382//382 368//368 
f 370//370 384//384 369//369 
f 384//384 383//383 369//369 
f 362//362 372//372 384//384 
f 370//370 362//362 384//384 
f 371//371 377//377 373//373 
f 374//374 373//373 377//377 
f 378//378 374//374 377//377 
f 375//375 374//374 378//378 
f 379//379 375//375 378//378 
f 376//376 375//375 379//379 
f 380//380 376//376 379//379 
f 385//385 376//376 380//380 
f 385//385 380//380 387//387 
f 387//387 380//380 381//381 
f 382//382 388//388 381//381 
f 388//388 387//387 381//381 
f 383//383 389//389 382//382 
f 389//389 388//388 382//382 
f 384//384 390//390 383//383 
f 390//390 389//389 383//383 
f 372//372 386//386 390//390 
f 384//384 372//372 390//390 
f 387//387 397//397 391//391 
f 385//385 387//387 391//391 
f 388//388 398//398 387//387 
f 398//398 397//397 387//387 
f 389//389 399//399 388//388 
f 399//399 398//398 388//388 
f 390//390 400//400 389//389 
f 400//400 399//399 389//389 
f 386//386 392//392 400//400 
f 390//390 386//386 400//400 
f 391//391 397//397 393//393 
f 394//394 393//393 397//397 
f 398//398 394//394 397//397 
f 395//395 394//394 398//398 
f 399//399 395//395 398//398 
f 396//396 395//395 399//399 
f 400//400 396//396 399//399 
f 392//392 396//396 400//400 
